<svg width="473" height="433" version="1.1" xmlns="http://www.w3.org/2000/svg" desc="Created with imagetracer.js version 1.2.6" ><path fill="rgb(0,0,0)" stroke="rgb(0,0,0)" stroke-width="1" opacity="0" d="M 0 0 L 473 0 L 473 433 L 0 433 L 0 0 Z M 127 91 L 123 93 Q 116 91 115 94 L 113 93 Q 111 96 106 95 L 104 95 Q 101 99 94 98 Q 92 101 91 99 L 89 100 Q 87 103 86 101 L 68 112 Q 54 121 48 138 L 45 141 L 46 142 Q 43 143 44 148 Q 40 149 43 151 L 41 158 L 41 160 L 41 175 L 40 176 Q 43 178 42 185 L 44 189 L 43 190 L 45 192 L 44 193 L 55 210 Q 68 223 87 231 L 118 241 L 122 241 L 126 243 L 145 247 L 163 253 L 174 259 Q 180 263 182 271 Q 185 272 183 274 Q 186 274 185 279 L 185 283 L 184 290 L 181 296 Q 176 303 167 307 L 165 307 L 161 310 L 159 309 L 157 311 L 152 312 L 149 311 Q 147 314 143 313 L 141 313 L 139 312 L 135 313 L 131 312 L 128 313 L 122 312 L 118 312 L 102 309 L 90 305 L 86 302 L 83 302 Q 65 294 53 282 L 50 282 L 48 285 L 48 287 L 44 293 L 44 295 L 39 305 Q 35 306 38 308 L 33 319 L 52 333 L 69 342 L 98 351 L 109 352 L 110 353 L 118 353 L 119 354 L 151 354 L 152 353 L 159 353 L 169 351 L 194 342 L 212 329 L 217 323 Q 216 320 219 321 L 228 305 L 233 285 L 233 272 L 232 271 L 231 260 L 221 240 Q 208 223 186 215 Q 184 211 183 214 L 181 213 Q 179 209 178 212 L 175 211 Q 173 207 172 210 L 168 209 L 163 206 L 162 207 L 160 206 L 156 204 L 155 205 L 150 204 L 148 202 L 146 203 Q 144 199 143 202 L 140 201 L 138 201 L 136 200 L 134 200 L 132 199 L 128 197 L 126 198 Q 124 194 123 197 L 120 196 Q 118 192 117 195 L 115 194 Q 113 190 112 193 L 99 186 Q 90 181 88 170 L 88 160 L 94 148 L 99 143 L 113 136 L 135 132 L 156 133 L 167 135 L 184 141 L 198 150 Q 208 158 212 171 L 259 171 L 260 170 Q 253 147 240 132 Q 226 114 204 104 Q 202 100 201 103 L 198 101 L 196 101 L 193 100 L 185 96 L 184 97 L 181 96 L 179 96 L 172 94 L 167 94 L 164 92 L 162 93 L 156 92 L 153 91 L 152 92 L 131 92 L 129 92 L 127 91 Z M 393 96 L 392 98 Q 388 99 391 101 L 388 106 L 388 108 L 387 110 Q 383 111 386 113 L 384 116 L 384 118 L 379 128 L 379 130 Q 375 131 376 137 Q 372 138 375 140 L 372 145 L 372 147 Q 368 150 367 158 Q 363 159 366 161 L 362 170 Q 358 171 361 173 L 360 175 Q 356 176 359 178 L 356 183 L 356 185 L 355 187 Q 351 188 354 190 L 346 207 L 346 209 L 341 219 L 340 224 L 336 230 L 335 235 Q 331 236 334 238 L 331 243 L 331 245 L 329 248 L 329 250 L 322 265 L 322 267 L 317 277 L 317 279 L 316 281 L 313 286 Q 314 290 311 289 L 268 187 L 264 180 L 261 181 L 253 181 L 252 180 L 243 180 L 242 181 L 239 180 L 220 180 L 218 184 L 218 186 L 220 188 L 225 200 L 225 203 L 228 208 L 230 212 L 229 213 L 235 225 L 235 227 L 242 241 L 242 243 L 245 247 L 250 260 L 250 262 Q 256 269 258 280 Q 261 281 259 283 L 263 290 L 265 294 L 264 295 L 269 303 L 271 311 L 274 316 L 274 318 L 276 321 L 276 323 L 283 337 L 283 339 L 285 342 L 285 344 L 291 351 L 331 351 L 333 350 L 339 338 L 340 333 L 388 221 L 389 216 L 391 214 L 395 202 L 397 200 Q 406 173 418 150 L 419 145 L 439 100 L 438 96 L 434 97 L 394 97 L 393 96 Z " /><path fill="rgb(253,253,253)" stroke="rgb(253,253,253)" stroke-width="1" opacity="0.9686274509803922" d="M 124.5 93 L 156.5 93 L 157.5 94 L 165.5 94 L 171.5 96 L 176.5 96 L 191.5 100 Q 221.4 110.1 239 132.5 Q 251.3 147.8 258 168.5 L 256.5 170 L 214.5 170 L 208 159.5 L 194.5 146 Q 182 137 164.5 133 L 153.5 131 L 127.5 131 L 110.5 135 Q 100.6 138.6 94 145.5 L 87 158.5 L 87 172.5 Q 89.8 181.2 96.5 186 L 108.5 193 L 125.5 199 L 156.5 206 L 184.5 215 Q 203.4 222.1 216 235.5 Q 224.7 244.8 229 258.5 L 231 268.5 L 231 287.5 Q 225.8 317.3 205.5 332 Q 192.4 342.9 173.5 348 L 153.5 352 L 128.5 353 L 127.5 352 L 114.5 352 L 113.5 351 L 101.5 350 L 75.5 343 Q 51 334 34 317.5 L 49 285.5 L 51.5 283 Q 70.3 300.2 97.5 309 L 123.5 314 L 145.5 314 L 166.5 309 Q 176.2 304.7 182 296.5 L 186 285.5 L 186 276.5 Q 183.6 263.9 174.5 258 Q 163.8 250.7 149.5 247 L 112.5 238 L 90.5 231 Q 68.4 222.6 54 206.5 Q 46.2 197.3 43 183.5 L 42 178.5 L 42 157.5 Q 48.1 129.1 67.5 114 Q 78.4 105.4 92.5 100 L 106.5 96 L 116.5 94 L 123.5 94 L 124.5 93 Z M 130 94 L 129 95 L 121 95 L 110 97 L 92 102 L 70 115 Q 49 131 43 162 L 43 175 L 46 188 L 57 208 Q 70 222 91 229 L 112 236 L 124 238 L 159 248 Q 170 252 179 259 L 184 266 L 188 278 L 187 290 L 181 301 Q 174 308 164 312 L 149 315 L 141 315 L 140 316 L 120 315 L 99 311 L 71 299 L 51 286 L 38 313 L 37 318 L 46 325 L 60 334 L 76 341 L 95 347 L 107 348 L 114 350 L 122 350 L 123 351 L 147 351 L 148 350 L 157 350 Q 160 347 167 348 L 184 343 L 206 330 Q 223 316 229 290 L 229 269 Q 227 267 228 262 L 217 240 L 207 229 L 198 223 L 181 216 L 179 214 L 120 199 L 98 189 Q 88 184 85 172 L 85 159 L 88 151 L 92 146 L 106 135 L 114 132 L 129 129 L 150 129 L 151 130 L 169 132 Q 186 136 198 146 L 211 161 L 213 166 L 216 168 L 255 168 Q 249 147 236 132 L 220 116 L 196 103 L 183 99 L 168 97 L 162 95 L 130 94 Z " /><path fill="rgb(253,253,253)" stroke="rgb(253,253,253)" stroke-width="1" opacity="0.9686274509803922" d="M 420.5 97 Q 429.4 95.6 434.5 98 Q 435.8 95.7 437 98.5 L 331.5 349 L 290.5 349 L 288 346.5 L 219 183.5 L 220.5 182 L 263.5 182 L 311.5 292 Q 313.8 292.8 313 290.5 L 393.5 98 L 419.5 98 L 420.5 97 Z M 395 99 Q 396 102 393 101 L 389 115 L 384 124 L 381 134 L 379 136 L 374 151 L 361 179 L 353 201 L 348 210 L 346 218 L 334 244 L 315 292 Q 315 295 311 294 L 301 276 L 299 268 L 294 259 L 284 233 L 263 186 L 263 184 L 222 184 L 231 209 L 243 234 L 246 244 L 248 246 L 248 249 L 260 274 L 261 279 L 268 293 L 268 296 L 274 307 L 275 312 L 290 346 L 291 347 L 331 347 L 343 320 L 346 310 L 348 308 L 351 298 L 364 270 L 375 241 L 379 234 L 380 229 L 385 220 L 385 217 L 388 213 L 398 189 L 401 179 L 409 163 L 409 160 L 417 141 L 435 101 L 435 99 L 395 99 Z " /><path fill="rgb(254,254,254)" stroke="rgb(254,254,254)" stroke-width="1" opacity="0.996078431372549" d="M 129.5 94 L 161.5 95 L 190 101.5 L 186.5 102 L 182.5 101 L 181 101.5 Q 181.8 99.3 179.5 100 L 179.5 102 L 174.5 100 L 174 102 L 169.5 101 L 167.5 102 Q 165.8 98.9 164 100.5 Q 165.8 94.8 159.5 97 L 148.5 95 L 131.5 95 L 130.5 96 L 121.5 96 L 118 97.5 Q 123.2 99.8 119.5 102 L 111 101 Q 112.8 107.1 109.5 109 Q 105.3 110.1 107 106 L 103.5 106 L 100 108.5 Q 100.8 104.8 98.5 104 Q 91.5 102.5 92 105.5 L 91.5 107 L 93 107.5 L 90 109 L 91 104 L 89 104 L 89 107 Q 86 106 87 109 L 84.5 109 L 82.5 108 L 80 109.5 L 82 113 L 85 114.5 Q 81.3 116.4 83 123 L 85 123.5 L 83.5 125 L 71 125 L 69.5 122 L 63 124.5 L 64 126.5 L 63 129 L 59 130 L 61.5 135 Q 64.1 134.3 63 137 L 56 137.5 L 57 141.5 L 54.5 145 Q 52.3 144.3 53 146.5 L 47 149.5 L 49 150 L 50 154.5 L 48 155 L 47 159 Q 43.7 157.7 45 162.5 L 48 166.5 L 45 172.5 L 48.5 175 Q 50.3 171.3 52 174.5 Q 53 181 48.5 182 L 47 182.5 L 50 183 L 50 187 Q 55.2 184.9 54 189.5 L 57 193.5 L 57 196.5 L 55 199.5 L 57 200 L 58 208 L 60.5 209 Q 62.9 206.7 62 202 Q 66 200.6 64 207.5 L 69.5 211 L 73 209 L 73 215.5 L 74.5 216 L 77 217.5 L 76.5 219 L 79 220.5 L 77.5 223 L 57 207.5 L 46 187.5 L 43 174.5 L 43 161.5 Q 48.6 130.6 69.5 115 L 91.5 102 L 109.5 97 L 120.5 95 L 128.5 95 L 129.5 94 Z " /><path fill="rgb(254,254,254)" stroke="rgb(254,254,254)" stroke-width="1" opacity="0.996078431372549" d="M 395 99 L 434.5 99 L 435 100.5 L 417 140.5 L 391.5 203 L 391 200.5 L 392 196.5 L 391 193.5 L 391 191.5 L 391 187 L 385.5 187 L 385 185.5 L 389.5 180 L 392 180 L 392 186 L 394 186 L 394 173.5 L 392 172.5 L 392 166 L 394 166.5 L 394 173 L 397.5 173 L 407 164.5 Q 403.5 163 406 161.5 L 405 156.5 L 406 154.5 L 405 151 Q 408.7 149.8 407 155 L 409.5 155 L 410.5 153 L 408 152.5 Q 411.3 151.3 410 145.5 L 409 144.5 L 409 131.5 L 407.5 130 L 406 129.5 L 412.5 129 L 417 132.5 L 418.5 135 L 420 131.5 L 422 125.5 L 419 125 L 420.5 122 L 424 124 L 422 116 Q 418.3 117.3 420 111.5 L 421.5 109 Q 417.8 109.8 417 107.5 L 415.5 105 L 413 103.5 Q 413.8 100.9 410.5 102 L 408.5 100 L 399.5 100 Q 398.3 103 394 102 L 392 109 Q 397.6 108 399 112.5 Q 398 117.5 401 116.5 L 401 128.5 Q 399.2 133.5 392 132 L 392 130 L 398.5 130 L 399 128 L 384.5 128 L 384 129.5 Q 381.5 131 385 132.5 Q 386.9 137.9 383.5 137 L 380 136 L 383 143.5 L 381 145.5 L 381 150.5 Q 377.5 152.2 379 158 L 374.5 159 L 371.5 158 Q 369 159 370 163.5 L 368 165.5 L 369 166.5 L 369 173 Q 365.2 172 364 174.5 L 362 181.5 L 362 183.5 L 361 195 L 363 195.5 L 361 197.5 L 361 206.5 L 358.5 209 L 352.5 208 L 349 209.5 L 348 214.5 L 351 216 L 351 223 L 355.5 223 L 354.5 225 L 349 225 L 349 233.5 L 347 237 L 349 237.5 L 347.5 239 L 341 239.5 L 342 243 L 335 244 L 334 248.5 L 334.5 250 L 333 249.5 L 334 251.5 L 332 252.5 L 335 258.5 L 330.5 266 Q 325.3 264.3 327 269.5 L 328 273.5 L 321 278.5 L 320 282.5 L 321 285.5 L 318 287.5 Q 320.5 289 317 290.5 L 318 292.5 L 311.5 296 L 306 292.5 L 307 289.5 Q 304 288.3 305 284 L 299 284 Q 300.3 278.7 297 279.5 L 297 273 Q 299.7 274.1 299 271.5 L 298 267.5 L 299 267.5 L 301 275.5 L 310.5 294 Q 314.5 294.5 315 291.5 L 334 243.5 L 346 217.5 L 348 209.5 L 353 200.5 L 361 178.5 L 374 150.5 L 379 135.5 L 381 133.5 L 384 123.5 L 389 114.5 L 393 101 Q 396 102 395 99 Z M 424 100 L 424 102 L 428 101 L 432 103 L 432 102 Q 430 98 424 100 Z M 348 219 L 347 221 L 349 220 L 348 219 Z M 332 257 L 330 259 L 333 259 L 332 257 Z " /><path fill="rgb(254,254,254)" stroke="rgb(254,254,254)" stroke-width="1" opacity="0.996078431372549" d="M 191.5 102 Q 206.7 106.8 218 115.5 L 214.5 116 L 210.5 114 L 207.5 116 Q 205.6 112.3 199 114 Q 198.3 117.1 201 116.5 L 201 121.5 L 199.5 123 L 192 123 Q 193.5 128.4 190.5 130 Q 184.4 128.2 187 135.5 L 186 137.5 L 187.5 137 Q 192.9 135.1 192 138.5 L 191 140.5 L 193.5 144 Q 180.4 132.6 158 130.5 L 169 130 L 169 123.5 L 171 123 L 171.5 126 L 183.5 126 L 185 123 L 178.5 123 L 178 121 L 190.5 121 L 192 119.5 L 192 116 Q 197.2 118.1 196 113.5 L 192 110.5 L 191 107 L 194 105.5 L 193.5 104 L 192 104.5 L 191.5 102 Z " /><path fill="rgb(254,254,254)" stroke="rgb(254,254,254)" stroke-width="1" opacity="0.996078431372549" d="M 219.5 116 L 236 131.5 L 240 136.5 L 236.5 138 Q 235 134.5 233.5 137 L 226 137 L 226 130 L 221 130 L 221 123.5 L 220 121.5 L 222 119.5 L 219.5 116 Z " /><path fill="rgb(254,254,254)" stroke="rgb(254,254,254)" stroke-width="1" opacity="0.996078431372549" d="M 107 121 Q 112.8 119.5 114.5 123 L 121 123 L 121 129 L 123 129 L 124 123 L 127.5 122 L 133.5 126 L 137.5 125 L 142 126 Q 140.5 122.2 143.5 123 L 147.5 128 L 149 128.5 L 128.5 129 L 113.5 132 Q 99.8 135.8 92 145.5 L 88 150.5 L 85 158.5 L 85 171.5 Q 87.8 183.7 97.5 189 L 119.5 199 L 178.5 214 L 180.5 216 L 197.5 223 L 206.5 229 L 217 239.5 L 220 243.5 L 218.5 243 Q 213.8 241.7 212.5 244 L 212 237 Q 207.3 238 206 234.5 L 207 232.5 L 206 230 L 201.5 229 L 199 230 Q 200.5 226.3 197.5 227 L 193.5 222 L 190.5 221 L 186.5 223 L 184.5 222 L 182 223 L 180 216 L 175.5 215 L 172.5 216 Q 167.9 216.6 166.5 214 L 162.5 218 L 150 218 L 150.5 216 L 162.5 216 L 163 214 Q 157.2 215.5 155.5 212 L 149 212 L 148.5 215 Q 149.4 209.6 146.5 208 L 143.5 207 L 140.5 209 L 135 207 L 133.5 203 L 128 202 L 126.5 206 Q 123.2 204.9 124 207.5 L 122.5 209 L 116 209 Q 117.5 214.4 114.5 216 L 114 209 L 107 209 L 107 199.5 L 108 197.5 L 107 195 L 102.5 194 Q 101.2 196.2 100 193.5 L 100.5 192 Q 98.3 191.3 99 193.5 Q 97.7 196.2 96.5 194 L 93.5 193 L 91 194 L 91 187 L 85.5 187 L 86 185.5 L 85 181.5 L 86 180.5 L 84.5 178 L 86.5 179 L 87 177.5 L 85 173 L 82 171.5 L 80.5 169 L 78 167.5 Q 81.2 165 80 159 Q 77 160 78 157 L 84.5 157 L 85 155.5 L 86 153.5 Q 82.3 151.6 84 145 L 88 142.5 L 88 138.5 Q 92.3 136.8 91.5 130 L 92.5 132 L 93.5 129 L 108.5 129 L 109.5 130 L 111.5 129 L 114 130 L 114 123 L 107.5 123 L 107 121 Z M 103 130 L 103 132 L 107 133 Q 109 128 103 130 Z M 87 148 L 85 150 Q 84 152 87 151 L 87 148 Z M 93 190 L 94 192 Q 95 189 93 190 Z " /><path fill="rgb(254,254,254)" stroke="rgb(254,254,254)" stroke-width="1" opacity="0.996078431372549" d="M 150 123 L 156 123 L 156 125 L 150 125 L 150 123 Z " /><path fill="rgb(254,254,254)" stroke="rgb(254,254,254)" stroke-width="1" opacity="0.996078431372549" d="M 78.5 136 L 84 136.5 L 78.5 137 L 78.5 136 Z " /><path fill="rgb(254,254,254)" stroke="rgb(254,254,254)" stroke-width="1" opacity="0.996078431372549" d="M 240.5 139 Q 242.8 138.3 242 140.5 L 253 159.5 L 255 168 L 222 167.5 L 233.5 166 L 235.5 164 Q 240.8 165.3 242 162.5 Q 240.5 158.1 243.5 159 Q 246.5 157.4 245 152 Q 240.9 153.3 242 150 L 244.5 151 L 245 149 L 242 147.5 L 242 145 L 228.5 145 L 228 143 Q 233.4 144.5 235 141.5 Q 234.1 138.1 239.5 140 L 240.5 139 Z M 250 160 L 249 163 L 250 163 L 250 160 Z M 249 165 L 248 167 L 251 166 L 249 165 Z " /><path fill="rgb(254,254,254)" stroke="rgb(254,254,254)" stroke-width="1" opacity="0.996078431372549" d="M 198.5 143 L 205.5 143 L 206 145 L 208.5 145 L 211.5 149 Q 213.8 148.3 213 150.5 Q 209 152.5 213 154.5 L 212 158 Q 215 156.8 214 160.5 L 213 163.5 L 214 166 L 221 167.5 L 215.5 168 Q 208.4 155.1 197.5 146 L 195 144.5 L 198.5 143 Z M 208 154 Q 207 157 210 156 Q 211 153 208 154 Z " /><path fill="rgb(254,254,254)" stroke="rgb(254,254,254)" stroke-width="1" opacity="0.996078431372549" d="M 57 178 L 64 178.5 Q 62.4 181.5 57 180 L 57 178 Z " /><path fill="rgb(254,254,254)" stroke="rgb(254,254,254)" stroke-width="1" opacity="0.996078431372549" d="M 222 184 L 262.5 184 L 263 185.5 L 276 214.5 L 274.5 215 L 273 214.5 Q 273.7 217.1 271 216 L 272 213.5 L 270 213 L 272 207.5 L 269 201 L 263 198.5 Q 262.3 195.9 265 197 L 265 195 L 256 196 L 255.5 194 L 249 194 L 249 186 L 245.5 186 L 239 187 Q 240.5 192.4 237.5 194 Q 233.5 193.5 233 196.5 L 232 201.5 L 235 199.5 L 235 197 L 242 197 L 242 207.5 L 240.5 209 Q 234.4 207.8 235 210.5 L 234 212.5 L 236.5 216 L 242 217 L 240 222.5 L 242.5 228 L 249 228.5 L 245 230 L 245 236 L 247 236 L 248.5 232 L 249 236.5 L 249 238.5 L 247 242.5 L 248 244.5 L 246 243.5 L 243 233.5 L 231 208.5 L 222 184 Z M 228 185 L 229 187 Q 235 189 237 186 L 228 185 Z M 255 185 L 252 186 L 252 187 L 256 187 L 256 192 L 258 192 L 262 187 Q 260 184 255 185 Z M 224 186 L 224 188 L 226 187 L 224 186 Z M 234 202 L 232 205 L 234 204 L 234 202 Z " /><path fill="rgb(254,254,254)" stroke="rgb(254,254,254)" stroke-width="1" opacity="0.996078431372549" d="M 370.5 186 L 376 186.5 L 370.5 187 L 370.5 186 Z " /><path fill="rgb(254,254,254)" stroke="rgb(254,254,254)" stroke-width="1" opacity="0.996078431372549" d="M 69 187 Q 75.4 184.7 73 192.5 L 69 194 L 69 187 Z " /><path fill="rgb(254,254,254)" stroke="rgb(254,254,254)" stroke-width="1" opacity="0.996078431372549" d="M 378.5 193 L 384 193.5 L 378.5 194 L 378.5 193 Z " /><path fill="rgb(254,254,254)" stroke="rgb(254,254,254)" stroke-width="1" opacity="0.996078431372549" d="M 370 195 L 374 196.5 L 375.5 199 Q 377.8 198.3 377 200.5 L 375.5 202 L 364.5 202 L 363.5 200 Q 368.8 201.3 370 198.5 L 370 195 Z " /><path fill="rgb(254,254,254)" stroke="rgb(254,254,254)" stroke-width="1" opacity="0.996078431372549" d="M 256 202 L 258 202 L 258 208 L 256 208 L 256 202 Z " /><path fill="rgb(254,254,254)" stroke="rgb(254,254,254)" stroke-width="1" opacity="0.996078431372549" d="M 264.5 202 L 265 207.5 L 264 207.5 L 264.5 202 Z " /><path fill="rgb(254,254,254)" stroke="rgb(254,254,254)" stroke-width="1" opacity="0.996078431372549" d="M 93 207 L 99 207.5 Q 97.6 210.3 93 209 L 93 207 Z " /><path fill="rgb(254,254,254)" stroke="rgb(254,254,254)" stroke-width="1" opacity="0.996078431372549" d="M 389.5 207 L 389 208.5 L 377.5 236 L 377 233.5 L 378 230 Q 374.5 231.1 376 223.5 L 377 223.5 L 377.5 226 L 378 219.5 L 379.5 218 L 384 214.5 L 386 211.5 Q 382.3 209.8 385.5 208 L 389.5 207 Z " /><path fill="rgb(254,254,254)" stroke="rgb(254,254,254)" stroke-width="1" opacity="0.996078431372549" d="M 91.5 216 L 93.5 219 L 97.5 219 L 101.5 216 L 104.5 220 L 107 221.5 Q 105.6 224.3 101 223 L 101.5 231 Q 103 227.5 104.5 230 L 109.5 230 L 114 233 Q 112.6 237 119.5 235 L 120.5 234 L 135 234 Q 134.3 237.8 137.5 239 L 139.5 238 L 143 243.5 L 141.5 243 L 123.5 238 L 119.5 238 L 115.5 236 L 111.5 236 L 109.5 234 L 104.5 234 L 79 223.5 L 85.5 222 Q 87.5 226 89.5 222 L 91 221.5 L 91.5 216 Z " /><path fill="rgb(254,254,254)" stroke="rgb(254,254,254)" stroke-width="1" opacity="0.996078431372549" d="M 276.5 216 L 283 230.5 L 281.5 230 L 278 229 L 277 223.5 L 278 221.5 L 276.5 216 Z " /><path fill="rgb(254,254,254)" stroke="rgb(254,254,254)" stroke-width="1" opacity="0.996078431372549" d="M 284.5 235 L 298 265.5 L 294 266 Q 294.6 261.4 291 259.5 L 291 256.5 L 292 254.5 L 291 252 Q 288.3 253.1 289 250.5 L 287.5 251 Q 284.5 251.9 286 247.5 L 284 244.5 L 286 243.5 Q 282.5 242 285 240.5 L 284.5 239 L 278 239 L 278 237 Q 283.1 238.3 284.5 235 Z " /><path fill="rgb(254,254,254)" stroke="rgb(254,254,254)" stroke-width="1" opacity="0.996078431372549" d="M 372.5 236 L 373.5 238 L 376.5 237 L 376 238.5 L 331 347 L 326 346.5 L 332 343 L 333 337 L 330 335.5 L 328 327.5 L 333.5 322 L 335.5 322 L 338.5 324 L 341 320.5 L 343 312.5 L 342.5 311 L 344 311.5 L 345 309.5 L 344.5 308 Q 346.8 308.8 346 306.5 Q 343.4 305.1 344 300.5 L 345 295.5 L 342 294 L 342 287 L 347.5 287 L 349 284 L 353 281.5 L 353 280 L 355 280 Q 353.9 277.3 356.5 278 L 359 274.5 L 357.5 275 Q 355.3 275.8 356 273.5 Q 357.4 270.8 362 272 L 363 266 L 356.5 266 L 356 264 L 364 263.5 L 363 260.5 L 363.5 259 L 361 257.5 L 361 252.5 Q 364 251.3 363 247 Q 368.4 248.5 370 245.5 Q 368.8 238.3 372.5 236 Z " /><path fill="rgb(254,254,254)" stroke="rgb(254,254,254)" stroke-width="1" opacity="0.996078431372549" d="M 356 237 L 363 237.5 Q 361.4 240.5 356 239 L 356 237 Z " /><path fill="rgb(254,254,254)" stroke="rgb(254,254,254)" stroke-width="1" opacity="0.996078431372549" d="M 144.5 243 L 147 244.5 L 145.5 244 L 144.5 243 Z " /><path fill="rgb(254,254,254)" stroke="rgb(254,254,254)" stroke-width="1" opacity="0.996078431372549" d="M 150.5 244 L 157.5 246 L 157.5 244 L 160 245.5 L 160.5 248 L 161 245 Q 163.7 243.9 163 246.5 L 162 248.5 L 163.5 248 Q 169.5 249.5 171 246.5 L 171.5 244 Q 174.8 245.9 173 252 L 177.5 251 L 176.5 254 Q 179.1 253.3 178 256 L 176 256.5 L 183.5 257 Q 186 255.8 185 252 L 192 252 L 192 257.5 Q 190.4 260.5 185 259 L 186.5 262 L 189 263.5 Q 185.8 266 187 272 L 189 272 L 189 275 Q 192.3 273.9 191 278 L 189 278.5 L 192 280.5 L 191 287 Q 187.7 285.9 189 290 Q 193.5 288.3 192 293.5 L 189.5 292 Q 186.2 290.9 187 293.5 L 185 295.5 Q 186 300 183.5 301 Q 180.9 300.2 182 303.5 L 185 308.5 L 178.5 316 L 178 313 L 173.5 316 L 171 316 Q 172.1 313.3 169.5 314 L 167.5 315 Q 166 311.5 164.5 314 L 160.5 316 L 158.5 314 Q 157 317.5 155.5 315 Q 148.5 313.5 149 316.5 L 146 318 L 144 321.5 Q 145.8 328.3 142.5 330 L 142 321 L 135 321 Q 137.2 315.4 131.5 317 L 131.5 316 L 148.5 315 L 163.5 312 Q 174.4 308.4 181 300.5 L 187 289.5 L 188 277.5 L 184 265.5 L 178.5 259 Q 166.7 249.3 149 245.5 L 150.5 244 Z " /><path fill="rgb(254,254,254)" stroke="rgb(254,254,254)" stroke-width="1" opacity="0.996078431372549" d="M 264.5 244 L 265 249.5 Q 263.3 252.8 256.5 251 L 256.5 250 Q 262.8 251.3 264 247.5 L 264.5 244 Z " /><path fill="rgb(254,254,254)" stroke="rgb(254,254,254)" stroke-width="1" opacity="0.996078431372549" d="M 220.5 245 L 227 259.5 L 225.5 259 L 220 256.5 L 221 253.5 L 220 251.5 L 221 248.5 L 220.5 245 Z " /><path fill="rgb(254,254,254)" stroke="rgb(254,254,254)" stroke-width="1" opacity="0.996078431372549" d="M 248.5 246 L 250 251 L 254 251.5 L 253.5 253 L 257 255.5 L 254 256.5 L 257 266 Q 262.5 264.8 264 268.5 L 261 272.5 L 262.5 273 Q 263.8 270.7 265 273.5 L 265 278.5 L 263 279 L 263 280.5 L 264 282.5 L 263 282.5 Q 260 271 254 262.5 L 253 257.5 L 248 248.5 L 248.5 246 Z " /><path fill="rgb(254,254,254)" stroke="rgb(254,254,254)" stroke-width="1" opacity="0.996078431372549" d="M 199 252 L 201 252 L 201 258 L 199 258 L 199 252 Z " /><path fill="rgb(254,254,254)" stroke="rgb(254,254,254)" stroke-width="1" opacity="0.996078431372549" d="M 227.5 261 L 229 268.5 L 229 289.5 L 228 289.5 L 227 281.5 L 227.5 280 Q 224.5 280.5 226 273.5 L 228 269.5 L 227 268.5 L 227.5 261 Z " /><path fill="rgb(254,254,254)" stroke="rgb(254,254,254)" stroke-width="1" opacity="0.996078431372549" d="M 290 266 Q 294 264.6 292 271.5 L 290 272.5 L 290 266 Z " /><path fill="rgb(254,254,254)" stroke="rgb(254,254,254)" stroke-width="1" opacity="0.996078431372549" d="M 335 266 Q 338.7 264.6 337 270.5 L 335 271.5 L 335 266 Z " /><path fill="rgb(254,254,254)" stroke="rgb(254,254,254)" stroke-width="1" opacity="0.996078431372549" d="M 269 280 Q 273 278.6 271 285.5 Q 267.5 287 270 288.5 L 269 293.5 L 272.5 301 L 278 303.5 L 277.5 305 L 275 304 Q 273.8 307 277.5 306 L 277 307.5 L 278 309.5 L 277 311.5 L 278.5 315 L 282.5 316 L 285 315 L 283 320.5 Q 286.5 322.2 285 328 L 291.5 328 L 292.5 330 L 304.5 330 Q 307.5 328.4 306 323 L 299.5 323 L 299 321 L 305.5 321 Q 304.7 324.5 311 323 L 311 328.5 L 308 330 L 308 337 L 312.5 337 L 311.5 339 L 306.5 339 Q 304.8 342.5 299 341 L 298.5 339 L 291.5 339 L 292 340.5 Q 293.1 343.8 290.5 343 L 290.5 344 L 299.5 346 L 306.5 344 L 316.5 344 L 319.5 345 L 325 344 Q 326.3 347 322.5 346 L 321.5 347 L 298.5 347 Q 297.3 344.8 292.5 346 L 290 347 L 288 339.5 L 264 284.5 L 265 284.5 L 266.5 287 L 269 286.5 L 269 280 Z M 281 320 L 282 322 Q 283 319 281 320 Z M 293 332 L 292 333 Q 289 332 290 336 L 293 337 L 305 337 L 306 336 L 306 332 L 293 332 Z " /><path fill="rgb(254,254,254)" stroke="rgb(254,254,254)" stroke-width="1" opacity="0.996078431372549" d="M 51 286 L 70.5 299 L 90.5 308 L 111.5 314 L 130 315.5 L 119.5 316 Q 118 313.5 112.5 315 L 112.5 316 Q 115.3 315.4 114 321.5 Q 112.4 324.5 107 323 L 107 330 L 121 330 L 121 321 L 127.5 321 L 126.5 323 Q 120.4 321.2 123 328.5 L 121 330.5 Q 122.3 335.8 119.5 337 L 117 333 L 114.5 332 Q 112.8 335.5 107 334 L 107 332 L 100.5 332 L 100 330.5 L 102 328.5 L 102 314 L 100 314 Q 101.1 316.7 98.5 316 L 94 314.5 L 95 312.5 L 92 311.5 Q 93.1 308.2 90.5 309 L 88.5 308 L 86.5 308 L 83.5 308 L 79.5 305 L 81 307.5 L 79.5 309 L 79 307 L 75.5 308 L 71.5 307 L 73 309.5 L 73 321.5 L 71.5 323 L 71 316.5 L 69 314.5 L 69 308 Q 65 309.4 67 302.5 L 66 300 Q 62.3 301.4 64 295.5 Q 63 293 58.5 294 L 56.5 292 L 49.5 292 L 50 293.5 Q 50.8 297.8 48 298.5 L 49 301 Q 44.8 300 43.5 303 L 43 301.5 L 51 286 Z " /><path fill="rgb(254,254,254)" stroke="rgb(254,254,254)" stroke-width="1" opacity="0.996078431372549" d="M 285 287 L 292 287.5 Q 290.4 290.5 285 289 L 285 287 Z " /><path fill="rgb(254,254,254)" stroke="rgb(254,254,254)" stroke-width="1" opacity="0.996078431372549" d="M 319.5 292 L 320.5 294 Q 317.7 294.7 319.5 292 Z " /><path fill="rgb(254,254,254)" stroke="rgb(254,254,254)" stroke-width="1" opacity="0.996078431372549" d="M 278 294 L 285 294.5 Q 283.4 297.5 278 296 L 278 294 Z " /><path fill="rgb(254,254,254)" stroke="rgb(254,254,254)" stroke-width="1" opacity="0.996078431372549" d="M 226.5 297 L 227 298.5 Q 219.8 317.8 205.5 330 L 183.5 343 L 186 339.5 L 184 337.5 Q 183.3 335.3 185.5 336 L 187 339 L 189 338.5 L 188.5 337 L 190 336.5 L 187.5 333 L 185.5 332 L 171 332 L 171 323 L 164.5 323 L 164 321 L 170.5 321 Q 169.5 324.5 176.5 323 L 178.5 321 L 191.5 321 L 190.5 323 L 185.5 323 Q 183.8 326.5 178 325 L 178 330 L 192 330 L 192 325 L 202.5 325 L 206.5 326 L 206 324.5 L 207.5 316 L 208 324 L 214 319.5 L 213 314.5 Q 215.3 313.3 212.5 312 L 210 310.5 L 210 309 L 214 309 L 214.5 311 L 216 308 L 214 307.5 L 214 301 L 224.5 300 L 226 298.5 L 226.5 297 Z " /><path fill="rgb(254,254,254)" stroke="rgb(254,254,254)" stroke-width="1" opacity="0.996078431372549" d="M 326 301 Q 331.3 299.2 329 306.5 L 326 308 L 326 301 Z " /><path fill="rgb(254,254,254)" stroke="rgb(254,254,254)" stroke-width="1" opacity="0.996078431372549" d="M 42.5 304 L 43 306.5 L 43 308.5 Q 43.6 313.1 41 314.5 L 43.5 320 L 50.5 314 L 64 314 Q 63.3 317.1 66 316.5 L 66 321.5 Q 64.2 326.5 57 325 L 57 329 Q 59.7 327.9 59 330.5 Q 60.8 333.8 62.5 330 Q 64.8 329.3 64 331.5 L 64 333.5 L 63.5 336 L 45.5 325 L 37 317.5 L 38 312.5 L 42.5 304 Z " /><path fill="rgb(254,254,254)" stroke="rgb(254,254,254)" stroke-width="1" opacity="0.996078431372549" d="M 199 309 L 201 309.5 L 201 322 L 199 321.5 L 199 309 Z " /><path fill="rgb(254,254,254)" stroke="rgb(254,254,254)" stroke-width="1" opacity="0.996078431372549" d="M 328 314 L 334 314.5 Q 332.6 317.3 328 316 L 328 314 Z " /><path fill="rgb(254,254,254)" stroke="rgb(254,254,254)" stroke-width="1" opacity="0.996078431372549" d="M 321 321 L 327 321.5 Q 325.6 324.3 321 323 L 321 321 Z " /><path fill="rgb(254,254,254)" stroke="rgb(254,254,254)" stroke-width="1" opacity="0.996078431372549" d="M 71 330 L 75 332.5 Q 74.2 335.5 78 334 Q 76.9 331.3 79.5 332 L 83.5 334 L 87.5 333 L 90.5 337 L 116.5 337 L 117 338.5 Q 113.3 339.8 114 344 Q 117.7 342.5 117 345.5 L 121 347 L 121 349 L 127.5 349 L 128 351 L 100.5 348 L 92 345.5 L 97.5 344 L 99.5 344 L 103 343 Q 102 346 105 345 Q 104 342 107 343 L 107 339 L 85.5 339 L 85 340.5 L 84 342.5 L 84.5 344 L 65 336.5 L 67.5 336 L 69.5 337 Q 72.5 335.4 71 330 Z M 77 337 L 78 339 L 80 338 L 77 337 Z " /><path fill="rgb(254,254,254)" stroke="rgb(254,254,254)" stroke-width="1" opacity="0.996078431372549" d="M 159 337 L 170.5 337 L 171 340 L 178 340 Q 176.3 344.1 180.5 343 L 180.5 344 L 155.5 350 L 155.5 349 Q 158.1 349.8 157 346.5 Q 160 343.3 159 337 Z " /><path fill="rgb(254,254,254)" stroke="rgb(254,254,254)" stroke-width="1" opacity="0.996078431372549" d="M 87.5 343 L 91 345.5 L 89.5 345 L 86 344.5 L 87.5 343 Z " /><path fill="rgb(255,255,255)" stroke="rgb(255,255,255)" stroke-width="1" opacity="1" d="M 131.5 95 L 148.5 95 L 149.5 96 L 158.5 96 L 164 97 L 164.5 101 Q 166 98.5 167.5 102 L 170.5 101 L 174 102 L 174.5 100 L 176.5 101 L 178 100.5 L 177.5 102 L 180 101.5 L 179.5 100 Q 181.8 99.3 181 101.5 L 182.5 101 L 190.5 102 L 192 103.5 L 192.5 105 L 194 104.5 L 192.5 107 Q 190.3 106.3 191 108.5 L 193.5 112 L 196 113.5 Q 197.2 118.1 192 116 L 192 119.5 L 190.5 121 L 178 121 L 178 123 L 184.5 123 L 185 124.5 L 183.5 126 L 171 126 Q 172.3 121.9 169 123 L 169 130 L 151.5 130 L 146 126.5 L 143.5 123 Q 140.5 122.2 142 126 L 138.5 126 L 134.5 125 L 133.5 126 L 130.5 123 L 126.5 122 L 124 123 L 123 129 L 121 129 L 121 123 L 114 123 L 114 129.5 L 112.5 130 L 110.5 129 L 108.5 129 L 93 129.5 Q 95.3 130.8 92.5 132 L 91.5 130 L 91 135.5 L 88 138.5 Q 89 144 85.5 145 Q 82.5 144.5 84 151.5 L 86 154.5 L 85 157 L 78.5 157 L 78 159 Q 82 157.6 80 164.5 L 78 167.5 L 82 170.5 L 83.5 173 Q 85.8 172.3 85 174.5 L 87 178.5 L 85.5 178 L 84 178.5 Q 87.5 180 85 181.5 L 86 185.5 L 85.5 187 L 91 187 L 91 193.5 L 92.5 194 L 94.5 193 L 97.5 195 L 99 192 L 101 192.5 Q 98.8 193.8 101.5 195 L 104.5 194 L 107 195 L 107.5 197 L 109 196.5 L 107 199.5 L 107 209 L 114 209 L 114 215.5 L 116 214.5 L 116 209 L 122.5 209 L 124 206 L 128 204.5 Q 126.9 201.2 129.5 202 L 135 204.5 Q 133.8 208.3 137.5 207 L 141.5 209 Q 143 205.5 144.5 208 L 148 209.5 L 148.5 215 L 149 212 L 155.5 212 Q 157.2 215.5 163 214 L 162.5 216 L 150.5 216 L 150 218 L 162.5 218 L 166.5 214 Q 167.9 216.6 172.5 216 L 175.5 215 L 180 216 L 182 223 L 185.5 222 L 188.5 223 Q 190 219.5 191.5 222 Q 195.5 221.5 196 224.5 L 197.5 227 L 199 227 Q 197.5 230.8 200.5 230 L 202.5 229 L 206 230 L 207 233.5 Q 204.3 235.2 208.5 237 L 212 237 L 212 243.5 L 213.5 243 Q 218.8 241.8 220 244.5 L 221 250.5 L 220 252.5 L 221 255.5 Q 218.8 256.8 221.5 258 L 227 260.5 L 228 271.5 Q 224.3 273.4 226 280 L 228 280.5 L 227 284.5 L 228 285.5 L 228 293.5 L 224.5 300 L 214 301 L 214 307.5 L 216 308 L 216 309.5 L 214 310.5 L 214 309 L 210 309 L 211.5 312 L 214 313.5 L 213 316.5 L 214 319.5 L 208 324 L 207.5 316 L 206 324.5 L 206.5 326 L 192 325 L 192 330 L 178 330 Q 175.3 322.5 183.5 325 L 185.5 323 Q 190.8 324.3 192 321.5 L 178.5 321 Q 176.8 324.5 171 323 L 171 332 L 185.5 332 L 189 334.5 L 190 336.5 L 188 337.5 L 188.5 339 Q 186.3 339.8 187 337.5 L 184 336 L 186 339.5 Q 184.4 344.3 178 343 L 178 340 L 171 340 L 170.5 337 L 159 337 L 159 342.5 L 157 349 L 154.5 350 L 138.5 351 L 136.5 350 L 135.5 351 L 128 351 L 128 349 L 121.5 349 L 121 347 L 118.5 347 L 117 344 L 112.5 345 L 112.5 344 Q 115.1 344.8 114 341.5 L 117 337 L 90.5 337 L 89 335.5 L 87.5 333 L 83.5 334 L 78 332 Q 79.1 335.3 75 334 L 72.5 330 Q 69.8 329.4 71 335.5 L 68.5 337 L 64 336 L 63 332.5 L 64 330 L 60.5 332 L 59 329 Q 55.7 330.3 57 325.5 L 56 323.5 L 57 323.5 Q 56.4 326.3 62.5 325 Q 67.5 323.2 66 316 Q 62.9 316.8 63.5 314 L 50.5 314 L 43.5 320 L 41 314.5 Q 43.6 313.1 43 308.5 L 43 306.5 Q 42.3 301.8 45.5 301 Q 49.9 302.5 49 299.5 Q 46.5 298 50 296.5 L 49 292.5 L 56.5 292 L 58.5 294 Q 63 293 64 295.5 L 64 300 Q 66.7 298.9 66 301.5 L 67 308 Q 70.5 306.9 69 314.5 L 71 316.5 L 71.5 323 L 73 321.5 L 73 309.5 L 71.5 307 L 76.5 308 L 79 307 L 79.5 309 L 81 307.5 L 79.5 305 L 87.5 309 L 89.5 308 L 92 309 L 92.5 312 Q 93.8 309.8 95 312.5 L 94 314.5 L 100 316 Q 99 313 102 314 L 102 328.5 L 100 332 L 106.5 332 Q 105.5 335.5 112.5 334 Q 114 330.5 115.5 333 Q 117.8 332.3 117 334.5 Q 119 339 121 335.5 L 121 330 L 107 330 L 107 323 Q 112.4 324.5 114 321.5 Q 115.3 315.4 112.5 316 L 112.5 315 L 130.5 316 L 135 317 L 135 321 L 142 321 L 142 329.5 L 144 328.5 L 144 321.5 L 146 318 L 149 316.5 Q 148.5 313.5 155.5 315 L 161.5 315 L 165.5 313 L 168.5 315 L 171 314 Q 169.8 317 173.5 316 L 178 313 L 178.5 316 L 185 307.5 Q 181.4 305.6 182 301 L 185 299.5 L 185 295.5 L 187 292 Q 190.4 291.3 191.5 294 L 192 290 Q 187.5 291.5 189 287 Q 192.7 288.4 191 282.5 L 192 280.5 L 189 278.5 L 191 278 L 191 275 L 189 275 Q 190.3 270.9 187 272 L 187 266.5 L 189 263.5 L 185 260.5 Q 184.4 257.8 190.5 259 Q 193.5 257.4 192 252 L 185 252 L 185 255.5 Q 183.3 258.8 176.5 257 L 175.5 255 L 178 256 Q 179.1 253.3 176.5 254 L 177.5 251 L 173 252 L 173 245.5 L 171.5 244 L 169.5 248 Q 164 246.5 162.5 249 L 162 247.5 L 163 245 Q 160 243.8 161 247.5 L 160 247.5 L 158.5 244 L 157 244.5 L 157.5 246 L 150.5 244 L 147.5 245 L 144.5 243 Q 143.3 245.3 142 242.5 Q 142.5 238.5 139.5 238 L 137.5 239 Q 134.3 237.8 135 234 L 120.5 234 L 114 235 Q 115.1 232.3 112.5 233 L 109.5 230 Q 104.8 231.3 103.5 229 L 101 230.5 L 101 223 L 105.5 223 Q 108.5 221.5 105.5 220 L 103 218.5 L 101.5 216 L 97.5 219 L 93.5 219 L 91.5 216 L 91 222 L 87.5 224 L 83.5 222 L 78 223 L 79 220.5 L 76 218.5 L 76.5 217 L 73 216 L 73 209.5 L 71.5 209 Q 69.5 213 67.5 209 L 64 207.5 Q 66 200.6 62 202 Q 62.9 206.7 60.5 209 L 58 208 L 57 200 L 55 199.5 Q 57.6 198.1 57 193.5 Q 53.4 191.6 54 187 L 50 187 Q 52.1 181.8 47.5 183 L 47.5 182 L 52 178.5 Q 53 174 50.5 173 L 47.5 175 L 45 171.5 L 48 166.5 Q 44.1 164.4 45 159 Q 47.7 160.1 47 157.5 L 48 155.5 L 47.5 154 L 49.5 155 L 49 153.5 Q 50.5 149.1 47.5 150 L 48.5 148 Q 52.3 148.8 53 146.5 Q 52.3 144.3 54.5 145 Q 57.6 143.6 57 138.5 L 56.5 137 Q 64.1 138.5 63 135 L 60 133.5 L 59 130 L 63 129 L 64 125.5 Q 61.8 124.3 64.5 123 L 69.5 122 L 71 125 L 83.5 125 L 85 123.5 L 83 123 Q 81.3 116.4 85 114.5 L 82 113 L 80 109.5 L 83.5 108 L 87 109 Q 88.1 106.3 85.5 107 L 85.5 106 L 89 107 Q 87.7 102.9 91 104 L 91.5 106 L 92 104 Q 98.1 102.3 100 105.5 L 100.5 109 Q 101.9 105 107 106 Q 105.3 110.1 109.5 109 L 111 107.5 L 111 101 L 119.5 102 L 121 100.5 L 118.5 97 L 130.5 96 L 131.5 95 Z M 91 106 L 90 109 L 93 108 L 91 106 Z M 107 121 L 107 123 L 114 123 Q 112 120 107 121 Z M 150 123 L 150 125 L 156 125 L 156 123 L 150 123 Z M 79 136 L 79 137 L 84 137 L 79 136 Z M 57 178 L 57 180 Q 62 181 64 179 L 57 178 Z M 69 187 L 69 194 L 73 193 Q 75 185 69 187 Z M 93 207 L 93 209 Q 98 210 99 208 L 93 207 Z M 199 252 L 199 258 L 201 258 L 201 252 L 199 252 Z M 199 309 L 199 322 L 201 322 L 201 310 L 199 309 Z M 121 321 L 122 330 Q 124 328 123 323 Q 127 324 128 322 L 121 321 Z M 164 321 L 165 323 L 171 323 L 171 321 L 164 321 Z " /><path fill="rgb(255,255,255)" stroke="rgb(255,255,255)" stroke-width="1" opacity="1" d="M 399.5 100 L 408.5 100 Q 409.6 102.8 413 102 L 414.5 105 L 417 106.5 L 418.5 109 L 422 109.5 Q 418.8 111 420 116 Q 422.7 114.9 422 117.5 Q 424.8 119.5 424 124 L 420.5 122 L 419 125 L 422 125.5 L 419 132.5 Q 421.3 133.8 418.5 135 L 414.5 130 L 406.5 129 L 406.5 130 L 409 131.5 L 410 150.5 L 408.5 153 L 411 153.5 L 407 155 Q 408.7 149.8 405 151 L 406 155.5 L 405 158.5 L 406 161.5 Q 403.5 163 407 164.5 L 405.5 166 L 397.5 173 L 394 173 L 394 185.5 L 392 186 L 392 180 L 389.5 180 L 385 187 L 391 187 L 391 191.5 L 391 193.5 L 392 199.5 L 388.5 208 Q 384.8 207.3 384 209.5 L 386 213 Q 383.3 211.9 384 214.5 L 378 219.5 L 377.5 226 L 376.5 223 L 376 230 Q 379 228.8 378 232.5 L 377 237 L 373.5 238 L 372.5 236 L 370 239.5 Q 371.5 245.5 368.5 247 Q 361.2 244.4 363 250.5 Q 359.8 251.8 361 257.5 L 364 259.5 L 363 262.5 L 365 262.5 L 363.5 264 L 356 264 L 356.5 266 L 363 266 L 363 269.5 L 362 272 Q 357.4 270.8 356 273.5 Q 355.3 275.8 357.5 275 L 359 274.5 L 356.5 278 L 355 278 L 355 280 Q 352.3 278.9 353 281.5 L 349 284 L 347.5 287 L 342 287 L 342 294 L 345 295.5 L 344 303.5 L 346 308 L 344 308.5 L 344 310.5 L 342 313.5 L 341 320.5 L 338.5 324 L 333.5 322 L 328 327.5 L 328 329.5 L 331.5 337 Q 334.1 336.2 333 339.5 L 332 343 L 325.5 347 L 322.5 347 L 322.5 346 Q 326.3 347 325 344 L 317.5 345 L 316.5 344 L 306.5 344 L 299.5 346 L 290 343.5 L 292 343 L 291 339.5 L 299 339 Q 297.6 343 304.5 341 L 306.5 339 Q 311.8 340.3 313 337.5 L 308 337 L 308 330.5 L 309.5 330 Q 312.5 328.4 311 323 Q 303.5 320.3 306 328.5 L 304.5 330 L 292 330 L 291.5 328 L 285 328 L 285 322.5 L 283 319.5 L 285 315 L 282.5 316 L 277 313.5 L 277 311.5 L 278 309.5 L 277 307.5 L 277.5 306 Q 273.8 307 275 304 L 277.5 305 L 278 303.5 L 271 299.5 L 269 292.5 L 270 288.5 L 265 285.5 L 263 279 Q 267 280.4 265 273.5 Q 263.8 270.7 262.5 273 L 261 272.5 L 264 268.5 Q 262.5 264.8 257 266 L 254 256.5 L 257 255.5 L 253 252.5 L 253.5 251 Q 249.1 252.5 250 249.5 L 247 241.5 L 249 238.5 L 249 236.5 L 248.5 232 L 247 236 L 245 236 L 245 230 L 249 228.5 L 242.5 228 L 241 226.5 L 240 221.5 L 242 217 L 235 214.5 L 234 211.5 L 235 209 Q 240.4 210.5 242 207.5 L 242 197 L 235 197 Q 235.8 200.4 233 201.5 L 234 203.5 L 231.5 205 L 233 202.5 L 232 201.5 Q 231.3 195.3 235.5 194 L 239 192.5 Q 236.3 184.3 244.5 187 L 249 186 L 249 194 L 255.5 194 Q 254.5 197.5 261.5 196 L 265 195 L 265 197 Q 262.3 195.9 263 198.5 L 269 201 L 272 207.5 L 270 213 L 272 213.5 L 271 216 Q 273.7 217.1 273 214.5 L 274.5 215 Q 277.1 214.2 276 217.5 L 278 222.5 L 277 225.5 L 278 229 L 283 231.5 L 284 235.5 Q 282.6 238.3 278 237 L 278 239 L 284.5 239 L 285 240.5 L 284 241.5 L 285.5 244 L 284 244.5 Q 286.8 246.5 286 251 L 288.5 250 L 289 252 Q 291.7 250.9 291 253.5 L 292 255.5 L 291 259.5 Q 294.6 261.4 294 266 Q 300 263.8 298 270.5 L 299 273 L 297 273.5 L 297 280 Q 300.7 278.8 299 284 L 305 284 L 305 287.5 L 307 290.5 L 306 292.5 L 311.5 296 L 318 292.5 L 317 290.5 Q 320.1 288.8 318.5 287 L 321 285.5 L 320 280.5 L 323.5 276 Q 327.5 276.5 328 273.5 L 327 266 Q 330.8 267 332 264.5 L 335 257.5 L 332 252.5 L 334 251.5 L 333 249.5 L 335 244 L 342 243 Q 342.8 239.6 340 238.5 L 341.5 239 Q 347.5 240.5 349 237.5 L 347 237 Q 350.5 233.7 349 225 Q 354.4 226.5 356 223.5 L 351 223 L 351 216.5 L 349.5 216 L 348 215.5 L 347.5 217 L 347 215.5 L 350.5 208 L 352.5 208 L 358.5 209 L 361 206.5 L 361 197.5 L 363 195.5 L 361 195 Q 359.9 187.1 363 182.5 L 362 179.5 L 365.5 173 L 369 173 L 369 166.5 Q 366.5 165 370 163.5 Q 369 159 371.5 158 L 375.5 159 L 379 158 Q 377.5 152.2 381 150.5 L 381 145.5 L 383 143.5 L 380 136 L 385 137 Q 386.3 131.9 383 130.5 L 384 128 L 398.5 128 L 399 129.5 L 401 128.5 L 401 116.5 Q 398 117.5 399 112.5 Q 397.6 108 392 109 L 394 102 Q 398.3 103 399.5 100 Z M 392 130 L 392 132 Q 397 133 399 131 L 392 130 Z M 392 166 L 392 173 L 394 173 L 394 167 L 392 166 Z M 371 186 L 371 187 L 376 187 L 371 186 Z M 379 193 L 379 194 L 384 194 L 379 193 Z M 370 195 L 370 199 Q 369 201 364 200 L 365 202 L 376 202 L 377 201 Q 378 198 376 199 L 374 197 L 370 195 Z M 256 202 L 256 208 L 258 208 L 258 202 L 256 202 Z M 265 202 L 264 208 L 265 208 L 265 202 Z M 356 237 L 356 239 Q 361 240 363 238 L 356 237 Z M 265 244 L 264 248 Q 263 251 257 250 L 257 251 Q 263 253 265 250 L 265 244 Z M 290 266 L 290 273 L 292 272 Q 294 265 290 266 Z M 335 266 L 335 272 L 337 271 Q 339 265 335 266 Z M 269 280 L 269 287 L 271 286 Q 273 279 269 280 Z M 285 287 L 285 289 Q 290 290 292 288 L 285 287 Z M 320 292 Q 318 295 321 294 L 320 292 Z M 278 294 L 278 296 Q 283 297 285 295 L 278 294 Z M 326 301 L 326 308 L 329 307 Q 331 299 326 301 Z M 328 314 L 328 316 Q 333 317 334 315 L 328 314 Z M 299 321 L 300 323 L 306 323 L 306 321 L 299 321 Z M 321 321 L 321 323 Q 326 324 327 322 L 321 321 Z " /><path fill="rgb(255,255,255)" stroke="rgb(255,255,255)" stroke-width="1" opacity="1" d="M 424 100 Q 430.1 98.3 432 101.5 L 431.5 103 L 427.5 101 L 424 102 L 424 100 Z " /><path fill="rgb(255,255,255)" stroke="rgb(255,255,255)" stroke-width="1" opacity="1" d="M 199 114 Q 205.7 112.6 208.5 116 L 212.5 114 Q 213.5 117 218.5 116 L 222 119.5 L 220 122.5 L 221 123.5 L 221 130 L 226 130 L 226 137 L 233.5 137 L 237 134.5 Q 233.3 136.3 236.5 138 L 239.5 137 Q 242.5 138.5 239.5 140 Q 234.1 138.1 235 141.5 Q 233.4 144.5 228 143 L 228.5 145 L 242 145 L 242 147.5 L 245 149 L 244.5 151 L 242 150 Q 240.9 153.3 245 152 L 245 157.5 L 242 159 Q 243 162.8 240.5 164 L 235.5 164 L 233.5 166 L 227.5 166 L 221.5 168 L 214 166 L 213 161.5 L 214 158 Q 211.3 159.1 212 156.5 L 213 154.5 Q 209 152.5 213 150.5 Q 213.8 148.3 211.5 149 L 208.5 145 L 206 145 L 205.5 143 L 198.5 143 L 194.5 144 L 191 139.5 L 192 137 L 186.5 138 L 186 136.5 L 187 130 Q 190.8 131 192 128.5 L 192 123 L 199.5 123 Q 202.5 121.4 201 116 Q 198 117 199 114 Z " /><path fill="rgb(255,255,255)" stroke="rgb(255,255,255)" stroke-width="1" opacity="1" d="M 103 130 Q 108.6 128.1 107 133 L 103 132 L 103 130 Z " /><path fill="rgb(255,255,255)" stroke="rgb(255,255,255)" stroke-width="1" opacity="1" d="M 86.5 148 L 87 151 Q 84.3 152.1 85 149.5 L 86.5 148 Z " /><path fill="rgb(255,255,255)" stroke="rgb(255,255,255)" stroke-width="1" opacity="1" d="M 208 154 Q 211 153 210 156 Q 207 157 208 154 Z " /><path fill="rgb(255,255,255)" stroke="rgb(255,255,255)" stroke-width="1" opacity="1" d="M 249.5 160 L 250 162.5 L 249 162.5 L 249.5 160 Z " /><path fill="rgb(255,255,255)" stroke="rgb(255,255,255)" stroke-width="1" opacity="1" d="M 251.5 164 L 249.5 167 L 247 166.5 L 251.5 164 Z " /><path fill="rgb(255,255,255)" stroke="rgb(255,255,255)" stroke-width="1" opacity="1" d="M 227.5 185 L 237 185.5 Q 235.3 188.8 228.5 187 L 227.5 185 Z " /><path fill="rgb(255,255,255)" stroke="rgb(255,255,255)" stroke-width="1" opacity="1" d="M 254.5 185 Q 260.5 183.5 262 186.5 L 257.5 192 L 256 192 L 256 187 L 251.5 187 L 251.5 186 L 254.5 185 Z " /><path fill="rgb(255,255,255)" stroke="rgb(255,255,255)" stroke-width="1" opacity="1" d="M 224 186 L 226 186.5 L 224 187.5 L 224 186 Z " /><path fill="rgb(255,255,255)" stroke="rgb(255,255,255)" stroke-width="1" opacity="1" d="M 92.5 190 Q 94.8 189.3 94 191.5 L 92.5 190 Z " /><path fill="rgb(255,255,255)" stroke="rgb(255,255,255)" stroke-width="1" opacity="1" d="M 347.5 219 L 349 219.5 L 346.5 221 L 347.5 219 Z " /><path fill="rgb(255,255,255)" stroke="rgb(255,255,255)" stroke-width="1" opacity="1" d="M 331.5 257 L 332.5 259 L 330 258.5 L 331.5 257 Z " /><path fill="rgb(255,255,255)" stroke="rgb(255,255,255)" stroke-width="1" opacity="1" d="M 280.5 320 Q 282.8 319.3 282 321.5 L 280.5 320 Z " /><path fill="rgb(255,255,255)" stroke="rgb(255,255,255)" stroke-width="1" opacity="1" d="M 292.5 332 L 305.5 332 L 306 335.5 L 304.5 337 L 292.5 337 L 290 336 Q 288.5 332.2 291.5 333 L 292.5 332 Z " /><path fill="rgb(255,255,255)" stroke="rgb(255,255,255)" stroke-width="1" opacity="1" d="M 76.5 337 L 80 337.5 L 77.5 339 L 76.5 337 Z " /><path fill="rgb(255,255,255)" stroke="rgb(255,255,255)" stroke-width="1" opacity="1" d="M 85 339 L 106.5 339 L 107 343 L 103 345 Q 104.1 342.3 101.5 343 L 98.5 345 L 96.5 344 L 91.5 346 L 87.5 343 L 85.5 344 L 84 341.5 L 85 339 Z " /><path fill="rgb(255,255,255)" stroke="rgb(255,255,255)" stroke-width="1" opacity="1" d="M 292.5 346 L 298 346.5 L 292.5 347 L 292.5 346 Z " /><path fill="rgb(227,227,227)" stroke="rgb(227,227,227)" stroke-width="1" opacity="0.27450980392156865" d="M 126.5 91 L 128.5 92 L 130.5 92 L 151.5 92 L 152.5 91 L 155.5 92 L 161.5 93 L 163.5 92 L 166.5 94 L 171.5 94 L 178.5 96 L 180.5 96 L 183.5 97 L 184.5 96 L 192.5 100 L 195.5 101 L 197.5 101 L 200.5 103 Q 202 100.5 203.5 104 Q 225.9 113.6 240 131.5 Q 253 147.5 260 169.5 L 258.5 171 L 212 171 Q 207.7 158.1 197.5 150 L 183.5 141 L 166.5 135 L 155.5 133 L 134.5 132 L 112.5 136 L 98.5 143 L 94 147.5 L 88 159.5 L 88 169.5 Q 90.4 180.6 98.5 186 L 111.5 193 Q 113 190.5 114.5 194 L 116.5 195 Q 118 192.5 119.5 196 L 122.5 197 Q 124 194.5 125.5 198 L 127.5 197 L 131.5 199 L 133.5 200 L 135.5 200 L 137.5 201 L 139.5 201 L 142.5 202 Q 144 199.5 145.5 203 L 147.5 202 L 149.5 204 L 154.5 205 L 155.5 204 L 159.5 206 L 161.5 207 L 162.5 206 L 167.5 209 L 171.5 210 Q 173 207.5 174.5 211 L 177.5 212 Q 179 209.5 180.5 213 L 182.5 214 Q 184 211.5 185.5 215 Q 208 222.5 221 239.5 L 231 259.5 L 232 270.5 L 233 271.5 L 233 284.5 L 228 304.5 L 219 321 Q 216.3 319.9 217 322.5 L 211.5 329 L 193.5 342 L 168.5 351 L 158.5 353 L 151.5 353 L 150.5 354 L 118.5 354 L 117.5 353 L 109.5 353 L 108.5 352 L 97.5 351 L 68.5 342 L 51.5 333 L 33 318.5 L 38 307.5 Q 35.5 306 39 304.5 L 44 294.5 L 44 292.5 L 48 286.5 L 48 284.5 L 49.5 282 L 52.5 282 Q 65.4 294.1 82.5 302 L 85.5 302 L 89.5 305 L 101.5 309 L 117.5 312 L 121.5 312 L 127.5 313 L 130.5 312 L 134.5 313 L 138.5 312 L 140.5 313 L 142.5 313 Q 147.1 313.6 148.5 311 L 151.5 312 L 156.5 311 L 158.5 309 L 160.5 310 L 164.5 307 L 166.5 307 Q 175.5 303 181 295.5 L 184 289.5 L 185 282.5 L 185 278.5 L 185.5 276 L 186 285.5 Q 183.5 299 173.5 305 L 166.5 309 L 152.5 313 Q 147 311.5 145.5 314 L 123.5 314 L 97.5 309 L 84.5 304 Q 65.5 296 51.5 283 L 49 285.5 L 34 317.5 Q 69.4 352.6 139.5 353 L 140.5 352 L 153.5 352 L 154.5 351 L 165.5 350 L 187.5 343 Q 205.4 334.9 217 320.5 Q 225 311 229 297.5 L 231 287.5 L 231 268.5 L 229 258.5 L 225 248.5 L 211.5 231 Q 198 219.5 179.5 213 L 156.5 206 L 132.5 201 L 108.5 193 Q 97.8 188.7 91 180.5 L 87 172.5 L 87 158.5 Q 89.6 149.6 95.5 144 Q 103.8 136.3 116.5 133 L 127.5 131 L 153.5 131 L 172.5 135 L 186.5 141 Q 199.6 147.9 208 159.5 L 214.5 170 L 256.5 170 L 258 168.5 Q 247.4 136.1 223.5 117 Q 207.4 104.6 185.5 98 L 156.5 93 L 124.5 93 L 98.5 98 L 85.5 103 Q 68.2 110.7 57 124.5 Q 48.5 134.5 44 148.5 L 42 157.5 L 42 178.5 Q 46.7 202.3 62.5 215 Q 74.5 225 90.5 231 L 161.5 251 Q 173.7 255.3 181 264.5 Q 184.5 268 185 274.5 L 183 273.5 Q 185.5 272 182 270.5 Q 179.9 262.6 173.5 259 L 162.5 253 L 144.5 247 L 125.5 243 L 121.5 241 L 117.5 241 L 86.5 231 Q 67.8 223.2 55 209.5 L 44 192.5 L 45 191.5 L 43 189.5 L 44 188.5 L 42 184.5 Q 42.8 178.2 40 175.5 L 41 174.5 L 41 159.5 L 41 157.5 L 43 150.5 Q 40.5 149 44 147.5 Q 43.4 142.9 46 141.5 L 45 140.5 L 48 137.5 Q 54 121 67.5 112 L 85.5 101 Q 87 103.5 88.5 100 L 90.5 99 Q 92 101.5 93.5 98 Q 100.7 98.7 103.5 95 L 105.5 95 Q 110.8 95.8 112.5 93 L 114.5 94 Q 116.3 91.2 122.5 93 L 126.5 91 Z " /><path fill="rgb(227,227,227)" stroke="rgb(227,227,227)" stroke-width="1" opacity="0.27450980392156865" d="M 392.5 96 L 393.5 97 L 420 97.5 L 393.5 98 L 392 99.5 L 313 292 L 310 290.5 L 263.5 182 L 220.5 182 L 219 183.5 L 288 346.5 L 290.5 349 L 331.5 349 L 333 347.5 L 437 98.5 Q 435.8 95.7 434.5 98 L 432 97.5 L 437.5 96 L 439 99.5 L 419 144.5 L 418 149.5 Q 406 173 397 199.5 L 395 201.5 L 391 213.5 L 389 215.5 L 388 220.5 L 340 332.5 L 339 337.5 L 332.5 350 L 330.5 351 L 290.5 351 L 285 343.5 L 285 341.5 L 283 338.5 L 283 336.5 L 276 322.5 L 276 320.5 L 274 317.5 L 274 315.5 L 271 310.5 L 269 302.5 L 264 294.5 L 265 293.5 L 263 289.5 L 259 282.5 Q 261.5 281 258 279.5 Q 256 268.5 250 261.5 L 250 259.5 L 245 246.5 L 242 242.5 L 242 240.5 L 235 226.5 L 235 224.5 L 229 212.5 L 230 211.5 L 228 207.5 L 225 202.5 L 225 199.5 L 220 187.5 L 218 185.5 L 218 183.5 L 219.5 180 L 238.5 180 L 241.5 181 L 242.5 180 L 251.5 180 L 252.5 181 L 260.5 181 L 263.5 180 L 268 186.5 L 311 289 Q 314.3 290.3 313 285.5 L 316 280.5 L 317 278.5 L 317 276.5 L 322 266.5 L 322 264.5 L 329 249.5 L 329 247.5 L 331 244.5 L 331 242.5 L 334 237.5 Q 331.5 236 335 234.5 L 336 229.5 L 340 223.5 L 341 218.5 L 346 208.5 L 346 206.5 L 354 189.5 Q 351.5 188 355 186.5 L 356 184.5 L 356 182.5 L 359 177.5 Q 356.5 176 360 174.5 L 361 172.5 Q 358.5 171 362 169.5 L 366 160.5 Q 363.5 159 367 157.5 Q 367.6 150.1 372 146.5 L 372 144.5 L 375 139.5 Q 372.5 138 376 136.5 Q 375.4 130.9 379 129.5 L 379 127.5 L 384 117.5 L 384 115.5 L 386 112.5 Q 383.5 111 387 109.5 L 388 107.5 L 388 105.5 L 391 100.5 Q 388.5 99 392 97.5 L 392.5 96 Z " /></svg>